<svg xmlns="http://www.w3.org/2000/svg" width="24" height="24"><svg xmlns="http://www.w3.org/2000/svg" viewBox="0 0 24 24"><path d="M20 14a5 5 0 0 0-4-4.9V5.28L9 2.95 2 5.28v4.4a9.75 9.75 0 0 0 6.68 9.27l.31.1.31-.1a9.6 9.6 0 0 0 2.42-1.2 4.93 4.93 0 0 0 6 .41l3.54 3.54 1.41-1.41-3.54-3.54A5 5 0 0 0 20 14M9 16.94a7.76 7.76 0 0 1-5-7.26v-3l5-1.63 5 1.67V9.1a5 5 0 0 0-4 4.9 4.94 4.94 0 0 0 .5 2.14 7.7 7.7 0 0 1-1.5.8M12 14a3 3 0 1 1 3 3 3 3 0 0 1-3-3"/><path d="M6 8.38V11h2V9.62l1.45-.73-.9-1.78z"/></svg><style>@media (prefers-color-scheme:light){:root{filter:none}}@media (prefers-color-scheme:dark){:root{filter:invert()}}</style></svg>